<?xml version="1.0" encoding="UTF-8"?>
<svg width="107px" height="40px" viewBox="0 0 107 40" version="1.1" xmlns="http://www.w3.org/2000/svg" xmlns:xlink="http://www.w3.org/1999/xlink">
    <!-- Generator: Sketch 41 (35326) - http://www.bohemiancoding.com/sketch -->
    <title>Group Copy 2</title>
    <desc>Created with Sketch.</desc>
    <defs></defs>
    <g id="Page-1" stroke="none" stroke-width="1" fill="none" fill-rule="evenodd">
        <g id="6" transform="translate(-345.000000, -169.000000)" fill="#FFFFFF">
            <g id="Group" transform="translate(195.000000, 154.000000)">
                <g id="Group-Copy-2" transform="translate(150.000000, 15.000000)">
                    <path d="M78.8748726,13.2010215 L61.5420236,13.2010215 C60.4087029,13.2010215 59.4899277,12.2810215 59.4899277,11.14619 L59.4899277,11.14619 C59.4899277,10.0109091 60.4087029,9.09090909 61.5420236,9.09090909 L78.8748726,9.09090909 C80.0081932,9.09090909 80.9269684,10.0109091 80.9269684,11.14619 L80.9269684,11.14619 C80.9269684,12.2810215 80.0081932,13.2010215 78.8748726,13.2010215 M81.3268847,18.3947293 L81.3268847,18.6652911 C81.3268847,19.7695608 80.4327957,20.6648417 79.3299962,20.6648417 L66.3993686,20.6648417 L66.3993686,25.8504597 C66.3993686,26.6203473 67.0228072,27.2441675 67.7916698,27.2441675 L75.101027,27.2441675 C75.5512134,27.2441675 75.9057969,26.8594484 75.8694409,26.4100102 L75.7953823,25.491808 C75.6710536,23.953381 76.5839939,22.6365271 78.12531,22.6365271 C79.4974135,22.6365271 80.3991328,23.6945046 80.5140358,25.0634934 L80.7622442,28.022145 C80.9103614,29.7929316 79.7563941,31.30619 77.9821301,31.30619 L64.5205249,31.30619 C63.0766071,31.30619 61.9064816,30.1345046 61.9064816,28.6891113 L61.9064816,20.6648417 L61.0873488,20.6648417 C59.9845493,20.6648417 59.0909091,19.7695608 59.0909091,18.6652911 L59.0909091,18.3947293 C59.0909091,17.2904597 59.9845493,16.3956282 61.0873488,16.3956282 L79.3299962,16.3956282 C80.4327957,16.3956282 81.3268847,17.2904597 81.3268847,18.3947293" id="Shape"></path>
                    <path d="M93.5141727,28.9664147 L93.5141727,21.3232686 L89.2919361,21.3232686 L89.2919361,28.9664147 C89.2919361,30.2585495 88.2456904,31.30619 86.9552758,31.30619 L86.8821149,31.30619 C85.5917003,31.30619 84.5454545,30.2585495 84.5454545,28.9664147 L84.5454545,19.3241675 C84.5454545,17.8252911 85.7591175,16.6100102 87.2564473,16.6100102 L93.5141727,16.6100102 L93.5141727,13.0284372 L86.5549106,13.0284372 C85.4705135,13.0284372 84.5907874,12.1493361 84.588992,11.0630439 C84.5867478,9.9745046 85.4678205,9.09090909 86.5549106,9.09090909 L104.790377,9.09090909 C105.87612,9.09090909 106.756295,9.97225741 106.756295,11.0594484 C106.756295,12.1470889 105.87612,13.0284372 104.790377,13.0284372 L98.244496,13.0284372 L98.244496,16.4940552 L102.657041,16.4940552 L104.092879,16.4940552 C105.590209,16.4940552 106.803872,17.7093361 106.803872,19.2082125 L106.803872,21.0598979 L106.803872,28.9664147 C106.803872,30.2585495 105.757626,31.30619 104.467212,31.30619 C103.177695,31.30619 102.132347,30.2603473 102.130552,28.9691113 L102.121575,21.3232686 L98.244496,21.3232686 L98.244496,28.9664147 C98.244496,30.2585495 97.1982503,31.30619 95.9078357,31.30619 L95.850833,31.30619 C94.5604184,31.30619 93.5141727,30.2585495 93.5141727,28.9664147 Z" id="Shape"></path>
                    <path d="M51.7960815,20.7236306 L51.5133124,20.2872261 C48.1892044,15.1622823 41.3210568,13.7007093 36.2029359,17.0287991 L26.8814296,23.0849789 L20.6542253,13.4827317 C19.4867928,11.6831812 19.9998168,9.26790027 21.7974205,8.09891151 L22.2327951,7.81576544 C24.0299499,6.64677668 26.4420154,7.16048454 27.608999,8.9600351 L32.5942634,16.6467767 L38.6172455,12.7303722 L33.6319811,5.04363061 C30.3083219,-0.0817626485 23.4397255,-1.54333568 18.3216046,1.78475421 L17.8857811,2.06790027 C12.7672113,5.3964396 11.307584,12.2741924 14.6312432,17.3991362 L20.8571009,26.9991362 L13.4691968,31.7991362 C11.6715931,32.968125 9.25952772,32.4548666 8.09254408,30.6548666 L7.80932612,30.2184621 C6.64054712,28.4157654 7.15222456,26.0054284 8.95207242,24.8350913 L14.483126,21.2382374 L10.5719355,15.2072261 L5.04133069,18.8036306 C-0.0853182271,22.1375632 -1.54225242,29.0018329 1.78679284,34.135316 L2.06956196,34.5717205 C5.39366998,39.6966643 12.2622664,41.1582374 17.3803874,37.8301475 L40.1141264,23.0598104 C41.9112812,21.8908216 44.3233467,22.4045295 45.4903303,24.20408 L45.7735483,24.6404845 C46.9427761,26.4431812 46.4310987,28.8535183 44.630802,30.0238553 L39.9673558,33.0562149 C38.3044041,34.1380126 37.8317757,36.3645295 38.9116844,38.0301475 C39.9915931,39.695316 42.2155947,40.1685744 43.8789952,39.0872261 L48.5415437,36.055316 C53.6681926,32.7213834 55.1255756,25.8571138 51.7960815,20.7236306 Z" id="Shape"></path>
                </g>
            </g>
        </g>
    </g>
</svg>