<?xml version="1.0" encoding="UTF-8"?>
<svg width="49px" height="36px" viewBox="0 0 49 36" version="1.1" xmlns="http://www.w3.org/2000/svg" xmlns:xlink="http://www.w3.org/1999/xlink">
    <!-- Generator: Sketch 43.2 (39069) - http://www.bohemiancoding.com/sketch -->
    <title>Shape Copy</title>
    <desc>Created with Sketch.</desc>
    <defs></defs>
    <g id="Page-1" stroke="none" stroke-width="1" fill="none" fill-rule="evenodd">
        <g id="5" transform="translate(-876.000000, -780.000000)" fill="#2D85ED">
            <path d="M922.853866,798.807551 L922.598078,798.411496 C919.591145,793.760397 913.378334,792.43396 908.748568,795.454339 L900.31649,800.950572 L894.683466,792.236136 C893.627426,790.602969 894.091499,788.411002 895.717581,787.350097 L896.111413,787.09313 C897.737089,786.032224 899.919003,786.498435 900.974637,788.131602 L905.484223,795.107637 L910.932512,791.553339 L906.422926,784.577303 C903.416399,779.925797 897.203182,778.599359 892.573416,781.619738 L892.179177,781.876705 C887.549005,784.897492 886.228651,791.139337 889.235177,795.790435 L894.866983,804.502831 L888.184009,808.859029 C886.557927,809.919935 884.376013,809.454132 883.32038,807.820557 L883.064185,807.424502 C882.006927,805.788481 882.469782,803.601 884.097894,802.538871 L889.101193,799.274578 L885.563195,793.801186 L880.560303,797.065071 C875.922823,800.090753 874.604904,806.320361 877.616303,810.979209 L877.872091,811.375264 C880.879023,816.026362 887.09224,817.3528 891.722007,814.332421 L912.286565,800.92773 C913.912241,799.866825 916.094155,800.333036 917.149789,801.966202 L917.405983,802.362257 C918.463647,803.998279 918.000792,806.185759 916.372274,807.247889 L912.153799,809.99988 C910.649521,810.981656 910.221989,813.002312 911.198857,814.51393 C912.175724,816.025139 914.187518,816.45464 915.692202,815.473272 L919.909866,812.721688 C924.547346,809.696007 925.86567,803.466399 922.853866,798.807551 Z" id="Shape-Copy"></path>
        </g>
    </g>
</svg>